HIERARCHY
ROOT Hips
{
    OFFSET 0.000000 0.000000 0.000000
    CHANNELS 6 Xposition Yposition Zposition Zrotation Xrotation Yrotation
    JOINT Spine
    {
        OFFSET -0.000000 14.517291 0.000000
        CHANNELS 3 Zrotation Xrotation Yrotation
        JOINT Spine1
        {
            OFFSET -0.000000 37.558300 0.000000
            CHANNELS 3 Zrotation Xrotation Yrotation
            JOINT Neck
            {
                OFFSET -0.000000 37.404057 3.400369
                CHANNELS 3 Zrotation Xrotation Yrotation
                JOINT Head
                {
                    OFFSET -0.000000 24.785618 -3.540803
                    CHANNELS 3 Zrotation Xrotation Yrotation
                    End Site
                    {
                        OFFSET -0.000000 35.408028 0.000000
                    }
                }
            }
            JOINT LeftShoulder
            {
                OFFSET 6.992933 33.973492 -0.192664
                CHANNELS 3 Zrotation Xrotation Yrotation
                JOINT LeftArm
                {
                    OFFSET 21.527611 0.000000 0.000000
                    CHANNELS 3 Zrotation Xrotation Yrotation
                    JOINT LeftForeArm
                    {
                        OFFSET 56.353916 0.000000 0.000000
                        CHANNELS 3 Zrotation Xrotation Yrotation
                        JOINT LeftHand
                        {
                            OFFSET 47.774071 0.000000 0.000000
                            CHANNELS 3 Zrotation Xrotation Yrotation
                            End Site
                            {
                                OFFSET 26.556021 0.000000 0.000000
                            }
                        }
                    }
                }
            }
            JOINT RightShoulder
            {
                OFFSET -7.065357 33.973492 -0.192664
                CHANNELS 3 Zrotation Xrotation Yrotation
                JOINT RightArm
                {
                    OFFSET -21.527611 0.000000 0.000000
                    CHANNELS 3 Zrotation Xrotation Yrotation
                    JOINT RightForeArm
                    {
                        OFFSET -56.353916 0.000000 0.000000
                        CHANNELS 3 Zrotation Xrotation Yrotation
                        JOINT RightHand
                        {
                            OFFSET -47.774071 0.000000 0.000000
                            CHANNELS 3 Zrotation Xrotation Yrotation
                            End Site
                            {
                                OFFSET -26.556021 0.000000 0.000000
                            }
                        }
                    }
                }
            }
        }
    }
    JOINT LeftUpLeg
    {
        OFFSET 17.704014 0.000000 0.000000
        CHANNELS 3 Zrotation Xrotation Yrotation
        JOINT LeftLeg
        {
            OFFSET -0.000000 -81.181816 0.000000
            CHANNELS 3 Zrotation Xrotation Yrotation
            JOINT LeftFoot
            {
                OFFSET -0.000000 -62.821102 0.000000
                CHANNELS 3 Zrotation Xrotation Yrotation
                JOINT LeftToeBase
                {
                    OFFSET -0.000000 -11.507608 26.556021
                    CHANNELS 3 Zrotation Xrotation Yrotation
                    End Site
                    {
                        OFFSET -0.000000 0.000000 7.081605
                    }
                }
            }
        }
    }
    JOINT RightUpLeg
    {
        OFFSET -17.704014 0.000000 0.000000
        CHANNELS 3 Zrotation Xrotation Yrotation
        JOINT RightLeg
        {
            OFFSET -0.000000 -81.181816 0.000000
            CHANNELS 3 Zrotation Xrotation Yrotation
            JOINT RightFoot
            {
                OFFSET -0.000000 -62.821102 0.000000
                CHANNELS 3 Zrotation Xrotation Yrotation
                JOINT RightToeBase
                {
                    OFFSET -0.000000 -11.507608 26.556021
                    CHANNELS 3 Zrotation Xrotation Yrotation
                    End Site
                    {
                        OFFSET -0.000000 0.000000 7.081605
                    }
                }
            }
        }
    }
}
MOTION
Frames:    5
Frame Time:    0.008333
-2.058440    158.027466    -24.481165    0.353373    -2.521257    -36.519165    3.601963    -1.040111    0.116921    -8.770458    8.712595    0.697991    25.975973    3.946950    15.913353    -15.935309    -0.662433    11.241155    2.544881    8.936189    -9.161882    -41.721581    -1.900963    -38.073395    21.722452    -35.782139    -59.406021    -15.721663    -21.662018    -25.451303    -10.206091    8.066329    -10.396956    18.285013    27.384966    -2.240115    27.633314    27.624262    96.423454    19.076336    0.925475    26.469564    14.833797    -13.557518    5.799856    -10.432293    13.756894    0.914732    -5.973821    1.997440    34.697956    0.000000    0.000000    0.000000    -11.996886    0.032268    -4.949803    5.604145    27.097721    -0.496404    3.742262    -21.365454    -15.018375    0.000000    0.000000    0.000000    
-2.061718    158.022858    -24.481747    0.352365    -2.525753    -36.511631    3.600526    -1.035648    0.128537    -8.767502    8.711454    0.701566    26.008007    3.951657    15.918093    -15.987207    -0.648460    11.237666    2.550871    8.936877    -9.164853    -41.732979    -1.877946    -38.071590    21.733765    -35.790867    -59.424603    -15.770005    -21.648613    -25.468184    -10.194546    8.076836    -10.392445    18.292469    27.393444    -2.244011    27.607683    27.633011    96.437172    19.094742    0.962292    26.457329    14.835056    -13.563663    5.794349    -10.442356    13.772782    0.934651    -5.966479    1.992861    34.689678    0.000000    0.000000    0.000000    -11.997942    0.038244    -4.953658    5.611072    27.098841    -0.507035    3.784065    -21.404102    -15.070839    0.000000    0.000000    0.000000    
-2.066209    158.020691    -24.482227    0.347502    -2.526897    -36.499340    3.601740    -1.031344    0.132769    -8.757044    8.708485    0.702519    26.014280    3.937800    15.927252    -15.996416    -0.614744    11.246489    2.551207    8.941162    -9.168575    -41.746948    -1.884204    -38.064034    21.693487    -35.771751    -59.474991    -15.744995    -21.642874    -25.464909    -10.191977    8.077649    -10.376738    18.301521    27.410923    -2.254792    27.580059    27.648685    96.444450    19.106174    1.015386    26.464584    14.840409    -13.567432    5.793739    -10.444694    13.783135    0.926317    -5.964023    1.992290    34.682243    0.000000    0.000000    0.000000    -11.994800    0.040750    -4.973893    5.602467    27.116285    -0.498184    3.720599    -21.367491    -15.004033    0.000000    0.000000    0.000000    
-2.071671    158.014206    -24.481728    0.344114    -2.533212    -36.489185    3.603572    -1.028773    0.140856    -8.761865    8.714468    0.704761    26.040964    3.962568    15.931856    -16.034924    -0.634743    11.245615    2.565328    8.951077    -9.173992    -41.754211    -1.881468    -38.062805    21.671148    -35.774731    -59.511826    -15.742944    -21.651443    -25.457140    -10.176893    8.092957    -10.364338    18.314871    27.414982    -2.263651    27.527233    27.655577    96.469521    19.056858    1.061198    26.449144    14.843252    -13.570449    5.791015    -10.453891    13.800960    0.938153    -5.957343    1.983187    34.661446    0.000000    0.000000    0.000000    -11.994696    0.051067    -4.970703    5.613410    27.117064    -0.514322    3.804384    -21.428427    -15.061001    0.000000    0.000000    0.000000    
-2.078618    158.012695    -24.481995    0.339229    -2.537553    -36.475594    3.603996    -1.028737    0.144692    -8.760782    8.721111    0.706139    26.064938    3.973128    15.939930    -16.065151    -0.631930    11.249681    2.571451    8.954428    -9.179413    -41.756683    -1.876314    -38.058361    21.670073    -35.769581    -59.525784    -15.749426    -21.642839    -25.447115    -10.167173    8.095860    -10.348014    18.330254    27.427177    -2.271010    27.501583    27.664558    96.470718    19.019327    1.094093    26.448051    14.845840    -13.571693    5.791140    -10.454807    13.810827    0.909423    -5.963995    1.975546    34.680298    0.000000    0.000000    0.000000    -11.988579    0.058596    -5.000841    5.588489    27.130627    -0.492492    3.742971    -21.391733    -14.996358    0.000000    0.000000    0.000000    
